<svg xmlns="http://www.w3.org/2000/svg" xmlns:xlink="http://www.w3.org/1999/xlink" viewBox="0 0 40 40"><defs><style>.cls-1{fill:url(#New_Gradient_Swatch_7);}.cls-2{fill:url(#New_Gradient_Swatch_7-2);}.cls-3{fill:url(#linear-gradient);}</style><linearGradient id="New_Gradient_Swatch_7" x1="9.21" y1="22.69" x2="35.18" y2="22.69" gradientUnits="userSpaceOnUse"><stop offset="0.03" stop-color="red"/><stop offset="0.05" stop-color="#fd1500"/><stop offset="0.13" stop-color="#f07f00"/><stop offset="0.18" stop-color="#f79d00"/><stop offset="0.24" stop-color="#ffc100"/><stop offset="0.24" stop-color="#ffc600"/><stop offset="0.27" stop-color="#ffdf00"/><stop offset="0.29" stop-color="#fff100"/><stop offset="0.32" stop-color="#fffc00"/><stop offset="0.35" stop-color="#ff0"/><stop offset="0.37" stop-color="#fcff00"/><stop offset="0.39" stop-color="#f2ff00"/><stop offset="0.41" stop-color="#e1ff00"/><stop offset="0.42" stop-color="#cf0"/><stop offset="0.43" stop-color="#c5ff00"/><stop offset="0.45" stop-color="#b0ff00"/><stop offset="0.46" stop-color="#8fff00"/><stop offset="0.48" stop-color="#61ff00"/><stop offset="0.5" stop-color="#26ff00"/><stop offset="0.51" stop-color="lime"/><stop offset="0.57" stop-color="#02f800"/><stop offset="0.58" stop-color="#02f605"/><stop offset="0.59" stop-color="#03ef13"/><stop offset="0.6" stop-color="#05e42a"/><stop offset="0.61" stop-color="#06d44a"/><stop offset="0.62" stop-color="#09c074"/><stop offset="0.63" stop-color="#0ca8a6"/><stop offset="0.64" stop-color="#0f90d8"/><stop offset="0.69" stop-color="#2663ff"/><stop offset="0.71" stop-color="#2f5cff"/><stop offset="0.74" stop-color="#4649ff"/><stop offset="0.78" stop-color="#6d2aff"/><stop offset="0.82" stop-color="#a200ff"/></linearGradient><linearGradient id="New_Gradient_Swatch_7-2" x1="13.32" y1="13.58" x2="37.5" y2="13.58" xlink:href="#New_Gradient_Swatch_7"/><linearGradient id="linear-gradient" x1="2.5" y1="22.07" x2="17.67" y2="22.07" gradientUnits="userSpaceOnUse"><stop offset="0" stop-color="red"/><stop offset="0.05" stop-color="#ff0700"/><stop offset="0.12" stop-color="#ff1b00"/><stop offset="0.21" stop-color="#ff3c00"/><stop offset="0.3" stop-color="#ff6a00"/><stop offset="0.37" stop-color="#ff8a00"/><stop offset="0.41" stop-color="#ff9500"/><stop offset="0.48" stop-color="#ffb300"/><stop offset="0.57" stop-color="#ffe400"/><stop offset="0.62" stop-color="#ff0"/><stop offset="0.69" stop-color="#fcff00"/><stop offset="0.75" stop-color="#f2ff00"/><stop offset="0.8" stop-color="#e1ff00"/><stop offset="0.84" stop-color="#cf0"/></linearGradient></defs><title>Logoigmp00 copy</title><g id="Layer_2" data-name="Layer 2"><g id="Layer_4_copy" data-name="Layer 4 copy"><path class="cls-1" d="M26.73,16.47c-4.52-3.26-9.09-4.71-10.91-5.87a6.88,6.88,0,0,1-2.5-2.72L8.17,13l.13.09s8.82,5.6,9.2,9-.93,5.93-5.19,9l5.47,5.47a3.13,3.13,0,0,0,4.44,0L34.14,24.66C31.92,21.46,31.26,19.73,26.73,16.47Z"/><path class="cls-2" d="M36.58,17.78,22.22,3.42a3.13,3.13,0,0,0-4.44,0L13.32,7.88a6.88,6.88,0,0,0,2.5,2.72c1.82,1.16,6.39,2.61,10.91,5.87s5.19,5,7.41,8.19l2.44-2.44A3.13,3.13,0,0,0,36.58,17.78Z"/><path class="cls-3" d="M3.42,22.22l8.89,8.89c4.26-3,5.83-5.29,5.24-8.89C16.89,18.14,8.17,13,8.17,13L8,13.19,3.42,17.78A3.13,3.13,0,0,0,3.42,22.22Z"/></g></g></svg>