<svg xmlns="http://www.w3.org/2000/svg" viewBox="0 0 40 40"><defs><style>.cls-1{fill:url(#New_Gradient_Swatch_copy_4);}.cls-2{fill:url(#New_Gradient_Swatch_copy_5);}.cls-3{fill:url(#New_Gradient_Swatch_copy_3);}</style><linearGradient id="New_Gradient_Swatch_copy_4" x1="3.24" y1="21.99" x2="17.66" y2="21.99" gradientUnits="userSpaceOnUse"><stop offset="0" stop-color="#ef00c3"/><stop offset="0.84" stop-color="#1cc2ff"/><stop offset="1" stop-color="#02edff"/></linearGradient><linearGradient id="New_Gradient_Swatch_copy_5" x1="13.6" y1="13.85" x2="36.76" y2="13.85" gradientUnits="userSpaceOnUse"><stop offset="0" stop-color="#ef00c3"/><stop offset="0.54" stop-color="#2ab5fb"/><stop offset="0.61" stop-color="#1cc2ff"/><stop offset="0.85" stop-color="#0adfff"/><stop offset="1" stop-color="#02edff"/></linearGradient><linearGradient id="New_Gradient_Swatch_copy_3" x1="8.67" y1="22.58" x2="33.54" y2="22.58" gradientUnits="userSpaceOnUse"><stop offset="0" stop-color="#ef00c3"/><stop offset="0.57" stop-color="#1cc2ff"/><stop offset="0.62" stop-color="#11d5ff"/><stop offset="0.69" stop-color="#06e7ff"/><stop offset="0.74" stop-color="#02edff"/></linearGradient></defs><title>Logo wo TExt</title><g id="Layer_2" data-name="Layer 2"><g id="Layer_4_copy" data-name="Layer 4 copy"><path class="cls-1" d="M4.12,22.12l8.52,8.52c4.08-2.89,5.32-5.31,5-8.57s-8.93-8.74-8.93-8.74l-.15.15-4.4,4.4A3,3,0,0,0,4.12,22.12Z"/><path class="cls-2" d="M35.88,17.88,22.12,4.12a3,3,0,0,0-4.24,0L13.6,8.4A6.66,6.66,0,0,0,16,11c1.74,1.11,6.12,2.5,10.45,5.62s5,4.78,7.09,7.84l2.34-2.34A3,3,0,0,0,35.88,17.88Z"/><path class="cls-3" d="M26.45,16.62C22.12,13.5,17.74,12.11,16,11a6.66,6.66,0,0,1-2.4-2.6L8.67,13.33l.13.09s8.44,5.36,8.8,8.65-.88,5.68-5,8.57l5.24,5.24a3,3,0,0,0,4.24,0L33.54,24.46C31.42,21.4,30.78,19.74,26.45,16.62Z"/></g></g></svg>