<?xml version="1.0" encoding="utf-8"?>
<!-- Generator: Adobe Illustrator 28.2.0, SVG Export Plug-In . SVG Version: 6.00 Build 0)  -->
<svg version="1.1" id="Layer_1" xmlns="http://www.w3.org/2000/svg" xmlns:xlink="http://www.w3.org/1999/xlink" x="0px" y="0px"
	 width="230.6px" height="229.1px" viewBox="0 0 230.6 229.1" style="enable-background:new 0 0 230.6 229.1;" xml:space="preserve"
	>
<style type="text/css">
	.st0{fill:#2A7DE1;}
	.st1{fill:#0033A1;}
	.st2{fill:#FFFFFF;}
</style>
<g>
	<g>
		<path class="st0" d="M163.2,146.1h2.7c0.9-0.1,1.7,0.2,2.4,0.7c0.6,0.5,0.9,1.2,0.8,1.9c0,0.7-0.3,1.4-0.8,1.9
			c-0.7,0.5-1.6,0.8-2.5,0.7h-1.9v4.6h-0.8L163.2,146.1z M163.9,146.8v4h1.8c0.7,0.1,1.3-0.1,1.9-0.5c0.8-0.7,0.9-2,0.1-2.8
			c0,0,0,0,0,0c0,0,0,0,0,0l-0.1-0.1c-0.5-0.4-1.2-0.6-1.8-0.5L163.9,146.8z"/>
		<path class="st0" d="M171.7,146.1h2.5c0.9-0.1,1.7,0.2,2.4,0.7c0.6,0.5,0.9,1.1,0.8,1.9c0,1.1-0.8,2.1-1.9,2.4
			c0.5,0.4,1,0.9,1.3,1.5l2.2,3.4h-0.9l-1.7-2.7c-0.3-0.6-0.8-1.2-1.3-1.7c-0.4-0.2-0.9-0.4-1.4-0.3h-1.4v4.7h-0.8L171.7,146.1z
			 M172.5,146.8v3.9h1.6c0.7,0,1.4-0.1,1.9-0.5c0.8-0.7,0.9-1.8,0.2-2.6l-0.2-0.2c-0.6-0.4-1.2-0.6-1.9-0.5L172.5,146.8z"/>
		<path class="st0" d="M185.8,146c1.4,0,2.7,0.5,3.7,1.5c2,1.9,2.1,5,0.2,7c0,0,0,0,0,0c0,0,0,0-0.1,0.1l-0.1,0.1
			c-2.1,2-5.3,2-7.4,0c-2-1.9-2-5.1-0.1-7.1l0,0l0.1-0.1C183.1,146.5,184.4,146,185.8,146 M185.8,155.4c1.2,0,2.3-0.4,3.1-1.3
			c1.7-1.7,1.7-4.5,0-6.2c-1.7-1.7-4.5-1.7-6.2,0c-1.7,1.7-1.7,4.5,0,6.2c0,0,0,0,0,0C183.5,155,184.6,155.4,185.8,155.4"/>
		<path class="st0" d="M194.8,146.1v9.9c0.1,0.8-0.1,1.6-0.6,2.2c-0.4,0.4-0.9,0.6-1.5,0.6c-0.2,0-0.3,0-0.5,0l-0.1-0.7
			c0.1,0,0.3,0,0.4,0.1c0.9,0,1.4-0.7,1.4-2v-10.1H194.8z"/>
		<polygon class="st0" points="203.6,146.1 203.6,146.8 199,146.8 199,150.7 203.5,150.7 203.5,151.4 199,151.4 199,155.4 
			203.7,155.4 203.7,156 198.2,156 198.2,146.1 		"/>
		<path class="st0" d="M214.7,146.8v0.8c-1.1-0.6-2.3-1-3.5-1c-1.2,0-2.3,0.4-3.1,1.3c-0.8,0.8-1.3,2-1.2,3.1c0,1.2,0.4,2.3,1.2,3.1
			c0.8,0.8,2,1.3,3.2,1.2c1.2,0,2.4-0.4,3.5-1v0.8c-1.1,0.6-2.3,0.9-3.5,0.9c-1.4,0-2.8-0.5-3.8-1.4c-2-2-2-5.2,0-7.1c0,0,0,0,0,0
			c0,0,0,0,0,0c0,0,0,0,0.1-0.1c1-0.9,2.3-1.5,3.7-1.5C212.4,146,213.6,146.3,214.7,146.8"/>
		<polygon class="st0" points="224.5,146.1 224.5,146.8 220.8,146.8 220.8,156 220,156 220,146.8 216.3,146.8 216.3,146.1 		"/>
		<polygon class="st0" points="60.5,156.7 57.2,156.7 57.2,150.4 54.3,154 54,154 51,150.4 51,156.7 47.8,156.7 47.8,145.8 
			50.8,145.8 54.2,149.9 57.5,145.8 60.5,145.8 		"/>
		<path class="st0" d="M75.3,156.7h-3.4l-0.9-2.2h-4.7l-0.9,2.2H62l4.8-10.9h3.7L75.3,156.7z M70.3,152.6l-1.6-4l-1.6,4H70.3z"/>
		<rect x="76.8" y="145.8" class="st0" width="3.3" height="10.9"/>
		<polygon class="st0" points="94.7,156.7 91.8,156.7 86.1,150.6 86.1,156.7 82.9,156.7 82.9,145.8 85.8,145.8 91.4,151.8 
			91.4,145.8 94.7,145.8 		"/>
		<polygon class="st0" points="105.3,152.3 100.8,152.3 100.8,156.7 97.5,156.7 97.5,145.8 105.3,145.8 105.3,148 100.8,148 
			100.8,150.1 105.3,150.1 		"/>
		<path class="st0" d="M118.1,156.7h-3.5l-0.9-2c-0.2-0.5-0.5-1.1-0.9-1.6c-0.2-0.3-0.4-0.5-0.7-0.6c-0.3-0.1-0.6-0.1-0.9-0.1h-0.4
			v4.3h-3.3v-10.9h5.6c0.8,0,1.6,0.2,2.2,0.6c0.5,0.3,1,0.8,1.3,1.3c0.2,0.5,0.4,1,0.4,1.5c0,0.5-0.1,1-0.3,1.4
			c-0.2,0.3-0.4,0.6-0.7,0.8c-0.3,0.2-0.5,0.3-0.8,0.5c0.3,0.2,0.6,0.4,0.9,0.7c0.4,0.5,0.7,1.1,1,1.7L118.1,156.7z M113.6,149.2
			c0-0.4-0.2-0.8-0.5-1c-0.5-0.2-1.1-0.3-1.6-0.3h-0.7v2.6h0.7c0.6,0,1.1-0.1,1.7-0.3C113.5,150,113.7,149.6,113.6,149.2"/>
		<path class="st0" d="M131.6,156.7h-3.4l-0.9-2.2h-4.7l-0.9,2.2h-3.4l4.8-10.9h3.7L131.6,156.7z M126.6,152.6l-1.6-4l-1.6,4H126.6z
			"/>
		<polygon class="st0" points="145.8,156.7 142.5,156.7 142.5,150.4 139.5,154 139.3,154 136.3,150.4 136.3,156.7 133.1,156.7 
			133.1,145.8 136.1,145.8 139.4,149.9 142.8,145.8 145.8,145.8 		"/>
		<polygon class="st0" points="156.8,156.7 148.6,156.7 148.6,145.8 156.7,145.8 156.7,148 151.9,148 151.9,150 156.5,150 
			156.5,152.2 151.9,152.2 151.9,154.5 156.8,154.5 		"/>
		<path class="st0" d="M6.9,146.1c1.5,0,3,0.6,4.1,1.6c2.2,2.1,2.3,5.7,0.2,7.9c0,0,0,0,0,0l-0.1,0.1c-2.3,2.2-5.9,2.2-8.3,0
			c-2.2-2.2-2.3-5.7-0.1-7.9l0.1-0.1C3.8,146.7,5.3,146.1,6.9,146.1 M6.9,156.7c1.3,0,2.6-0.5,3.5-1.4c1.9-1.9,1.9-5,0-6.9
			c-1.9-1.9-5-1.9-7,0c-1.9,1.9-1.9,5,0,6.9c0,0,0,0,0,0l0,0C4.3,156.2,5.6,156.7,6.9,156.7"/>
		<path class="st0" d="M14.8,146.3h3c1-0.1,1.9,0.2,2.7,0.8c1.2,1.1,1.2,2.9,0.2,4.1c-0.1,0.1-0.1,0.1-0.2,0.2
			c-0.8,0.6-1.8,0.9-2.7,0.8h-2.1v5.1h-0.8L14.8,146.3z M15.6,147v4.5h2.1c0.7,0,1.5-0.2,2.1-0.6c0.9-0.8,1-2.2,0.1-3.2
			c0,0-0.1-0.1-0.1-0.1c-0.6-0.4-1.3-0.6-2-0.6H15.6z"/>
		<polygon class="st0" points="29.1,146.3 29.1,147 23.9,147 23.9,151.4 28.9,151.4 28.9,152.1 23.9,152.1 23.9,156.6 29.2,156.6 
			29.2,157.3 23.1,157.3 23.1,146.3 		"/>
		<polygon class="st0" points="40.9,146.3 40.9,157.3 40.2,157.3 31.8,147.6 31.8,157.3 31,157.3 31,146.3 31.7,146.3 40,155.9 
			40,146.3 		"/>
		<path class="st1" d="M0,218l33.3-38.8H1v-11.7h49.4v10.1l-33.3,38.8h33.3v11.7H0L0,218z"/>
		<path class="st1" d="M57.3,205.2V205c0-13.3,10.7-24.1,25.2-24.1c14.4,0,25,10.6,25,24v0.2c0,13.3-10.7,24.1-25.2,24.1
			C67.9,229.1,57.3,218.5,57.3,205.2z M94.5,205.2V205c0-6.8-4.9-12.8-12.2-12.8c-7.5,0-12,5.8-12,12.6v0.2
			c0,6.8,4.9,12.8,12.2,12.8C90,217.8,94.5,212,94.5,205.2L94.5,205.2z"/>
		<path class="st1" d="M111.1,181.7h13.3l7.4,28.1l8.7-28.3h11.3l8.8,28.4l7.6-28.2h13.1L167,228.4h-11.9l-8.9-28.5l-9.1,28.5h-11.8
			L111.1,181.7z"/>
		<path class="st1" d="M185.1,205.2V205c0-13.2,9.4-24.1,22.9-24.1c15.5,0,22.6,12,22.6,25.2c0,1-0.1,2.2-0.2,3.5h-32.3
			c1.3,6,5.5,9.1,11.3,9.1c4.4,0,7.6-1.4,11.2-4.8l7.5,6.7c-4.3,5.4-10.6,8.7-18.9,8.7C195.4,229.1,185.1,219.3,185.1,205.2z
			 M217.8,201.3c-0.8-5.9-4.2-9.9-9.8-9.9c-5.5,0-9,3.9-10,9.9H217.8z"/>
	</g>
	<g>
		<polygon class="st2" points="130.1,14.1 171.1,70.8 103,120.3 60.7,54.3 		"/>
		<polygon class="st1" points="125.1,44.2 132.6,0 48.8,55.4 77.6,54.9 116.8,27.4 		"/>
		<polygon class="st0" points="181.8,74.5 123.1,54.3 132.6,0 		"/>
		<polyline class="st1" points="104.8,95.4 109.4,102.1 151.5,72.1 144.4,61.6 120.1,78.6 123.1,54.3 181.8,74.5 101.8,130.9 		"/>
		<polygon class="st0" points="48.8,55.4 77.6,54.9 84.4,66.4 111.4,48 101.8,130.2 		"/>
		<polygon class="st1" points="84.4,66.4 108.2,75.5 111.4,48 		"/>
	</g>
</g>
</svg>
