<svg xmlns="http://www.w3.org/2000/svg" xmlns:xlink="http://www.w3.org/1999/xlink" viewBox="0 0 40 40"><defs><style>.cls-1{fill:url(#New_Gradient_Swatch_copy_3);}.cls-2{fill:url(#New_Gradient_Swatch_copy_2);}.cls-3{fill:url(#New_Gradient_Swatch_copy_4);}</style><linearGradient id="New_Gradient_Swatch_copy_3" x1="8.67" y1="22.7" x2="33.54" y2="22.7" gradientUnits="userSpaceOnUse"><stop offset="0" stop-color="#ef00c3"/><stop offset="0.57" stop-color="#1cc2ff"/><stop offset="0.62" stop-color="#11d5ff"/><stop offset="0.69" stop-color="#06e7ff"/><stop offset="0.74" stop-color="#02edff"/></linearGradient><linearGradient id="New_Gradient_Swatch_copy_2" x1="13.6" y1="13.56" x2="36.76" y2="13.56" gradientUnits="userSpaceOnUse"><stop offset="0" stop-color="#ef00c3"/><stop offset="0.54" stop-color="#2ab5fb"/><stop offset="0.61" stop-color="#1cc2ff"/><stop offset="0.85" stop-color="#0adfff"/><stop offset="1" stop-color="#02edff"/></linearGradient><linearGradient id="New_Gradient_Swatch_copy_4" x1="3.24" y1="22.08" x2="17.77" y2="22.08" gradientUnits="userSpaceOnUse"><stop offset="0" stop-color="#ef00c3"/><stop offset="0.84" stop-color="#1cc2ff"/><stop offset="1" stop-color="#02edff"/></linearGradient></defs><title>Logoigmp00</title><g id="Layer_2"><g id="Layer_4_copy"><path class="cls-1" d="M26.45,16.46c-4.33-3.27-8.71-4.72-10.45-5.89a6.88,6.88,0,0,1-2.4-2.72L8.67,13l.13.09s8.44,5.63,8.8,9.07-.88,5.95-5,9l5.24,5.49a2.9,2.9,0,0,0,4.24,0l11.42-12C31.42,21.47,30.78,19.73,26.45,16.46Z"/><path class="cls-2" d="M35.88,17.78,22.12,3.37a2.9,2.9,0,0,0-4.24,0L13.6,7.85A6.88,6.88,0,0,0,16,10.57c1.74,1.17,6.12,2.62,10.45,5.89s5,5,7.09,8.21l2.34-2.45A3.25,3.25,0,0,0,35.88,17.78Z"/><path class="cls-3" d="M4.12,22.22l8.52,8.92c4.08-3,5.58-5.3,5-8.92-.64-4.09-9-9.2-9-9.21l-.15.16-4.4,4.61A3.25,3.25,0,0,0,4.12,22.22Z"/></g></g></svg>