<?xml version="1.0" encoding="utf-8"?>
<svg width="16" height="16" viewBox="0 0 16 16" xmlns="http://www.w3.org/2000/svg">
  <g fill="none" fill-rule="evenodd">
    <path fill="#9AA7B0" fill-opacity=".8" d="M7.9844,3 L6.6964,1.711 C6.3044,1.32 5.5324,1 4.9784,1 L1.0504,1 C1.0234,1 1.0004,1.023 1.0004,1.051 L1.0004,7 L10.0004,7 L14.0004,7 L15.0004,7 L15.0004,3 L7.9844,3 Z"/>
    <polygon fill="#40B6E0" fill-opacity=".7" points="1 15 16 15 16 8 1 8"/>
    <path fill="#231F20" fill-opacity=".7" d="M1,1 L1,4 L1.649,4 C2.578,4 3,3.493 3,2.515 L3,2.5 C3,1.522 2.578,1 1.649,1 L1,1 Z M0,0 L1.649,0 C3.04,0 4,1.093 4,2.5 C4,3.921 3.04,5 1.649,5 L0,5 L0,0 Z" transform="translate(2 9)"/>
    <path fill="#231F20" fill-opacity=".7" d="M 7.612 10.501 C 7.612 10.133 7.967 10 8.609 10 C 8.615 10 9.055 10 9.929 10 L 9.929 9 C 9.086 9 8.652 9 8.626 9 C 7.389 9 6.5 9.459 6.5 10.45 C 6.5 11.314 6.98 11.69 8.181 11.916 C 9.062 12.081 9.353 12.228 9.353 12.548 C 9.353 12.867 8.945 13 8.181 13 C 8.17 13 7.723 13 6.843 13 L 6.843 14 C 7.73 14 8.175 14 8.181 14 C 10.5 14 10.5 13 10.5 12.548 C 10.5 11.916 9.951 11.42 8.967 11.147 C 7.982 10.873 7.612 10.87 7.612 10.501 Z"/>
  </g>
</svg>