<?xml version="1.0" encoding="UTF-8"?>
<svg xmlns="http://www.w3.org/2000/svg" width="15.0" height="14.0" viewBox="1.0000000000000142 1.0 15.0 14.0">
  <g>
    <defs>
      <path id="s-Path_1-09eda" d="M7.984399795532248 3.0 L6.696400165557883 1.7109999656677246 C6.304399967193625 1.3200000524520874 5.532400131225607 1.0 4.978400230407736 1.0 L1.050400018692038 1.0 C1.0233999490738128 1.0 1.0003999471664642 1.0230000019073486 1.0003999471664642 1.0509999990463257 L1.0003999471664642 7.0 L10.000399589538596 7.0 L14.000399589538596 7.0 L15.000399589538596 7.0 L15.000399589538596 3.0 L7.984399795532248 3.0 Z "></path>
      <path id="s-Polygon_1-09eda" d="M1.0000000000000142 15.0 L16.000000000000007 15.0 L16.000000000000007 8.0 L1.0000000000000142 8.0 Z "></path>
      <path id="s-Path_2-09eda" d="M2.5950927138328637 12.58770751953125 C2.8244019150734037 12.837890625 3.037828624248514 13.0 3.4868285059929 13.0 C4.013183534145367 13.0 4.199999988079083 12.58770751953125 4.199999988079083 12.297607421875 L4.199999988079083 9.0 L5.199999988079085 9.0 L5.199999988079085 12.58770751953125 C5.199999988079085 13.31964111328125 4.526709020137799 14.0 3.6500000357627975 14.0 C2.828999936580667 14.0 2.349999964237221 13.762640953063965 2.000000000000007 13.31964111328125 L2.5950927138328637 12.58770751953125 Z "></path>
      <path id="s-Polygon_2-09eda" d="M12.000000000000012 13.0 L12.000000000000012 9.0 L11.000000000000014 9.0 L11.000000000000014 14.0 L14.20000000000001 14.0 L14.20000000000001 13.0 Z "></path>
      <path id="s-Path_3-09eda" d="M6.000000000000007 11.500999927520752 C6.000000000000007 10.0 6.930999994277961 9.0 8.256000041961677 9.0 C9.202392578125007 9.0 9.549999952316291 9.310999989509583 9.969000101089485 9.753000020980835 L9.426696777343757 10.4271240234375 C9.076696872711189 10.068124055862427 8.750000000000007 10.0 8.250000000000007 10.0 C7.417999982833869 10.0 7.000000000000007 10.7379150390625 7.000000000000007 11.486999988555908 C7.000000000000007 12.236084938049316 7.4119999408721995 13.0 8.250000000000007 13.0 C8.7869999408722 13.0 9.051696777343757 12.89340877532959 9.426696777343757 12.50640869140625 L10.000000000000007 13.144000053405762 C9.543999910354621 13.669000148773193 9.197326660156257 14.0 8.224999904632575 14.0 C6.949000000953681 14.0 6.000000000000007 13.001999855041504 6.000000000000007 11.500999927520752 Z "></path>
    </defs>
    <g>
      <use xmlns:xlink="http://www.w3.org/1999/xlink" xlink:href="#s-Path_1-09eda" fill="#9AA7B0" fill-opacity="0.8" filter="none"></use>
    </g>
    <g>
      <use xmlns:xlink="http://www.w3.org/1999/xlink" xlink:href="#s-Polygon_1-09eda" fill="#AD690F" fill-opacity="0.7" filter="none"></use>
    </g>
    <g>
      <use xmlns:xlink="http://www.w3.org/1999/xlink" xlink:href="#s-Path_2-09eda" fill="#231F20" fill-opacity="0.7" filter="none"></use>
    </g>
    <g>
      <use xmlns:xlink="http://www.w3.org/1999/xlink" xlink:href="#s-Polygon_2-09eda" fill="#231F20" fill-opacity="0.7" filter="none"></use>
    </g>
    <g>
      <use xmlns:xlink="http://www.w3.org/1999/xlink" xlink:href="#s-Path_3-09eda" fill="#231F20" fill-opacity="0.7" filter="none"></use>
    </g>
  </g>
</svg>
